<svg id="Слой_1" data-name="Слой 1" xmlns="http://www.w3.org/2000/svg" viewBox="0 0 566.13759 253.5177"><defs><style>.cls-1{fill:#201600;}</style></defs><title>Logo_The_Ad_Masters</title><polygon class="cls-1" points="266.279 0.147 266.279 0 190.125 156.985 213.334 156.985 266.279 46.084 266.279 46.231 319.224 157.132 342.433 157.132 266.279 0.147"/><polygon class="cls-1" points="284.872 20.172 350.147 156.985 372.696 156.985 295.944 0.001 284.872 20.172"/><polygon class="cls-1" points="0 196.677 0 207.226 9.168 207.226 9.168 252.974 20.376 252.974 20.376 207.226 29.544 207.226 29.544 196.677 0 196.677"/><polygon class="cls-1" points="418.154 196.677 418.154 207.226 427.321 207.226 427.321 252.974 438.53 252.974 438.53 207.226 447.698 207.226 447.698 196.677 418.154 196.677"/><polygon class="cls-1" points="63.532 196.677 63.532 219.221 43.653 219.221 43.653 196.677 32.971 196.677 32.971 219.221 32.971 229.902 32.971 252.974 43.653 252.974 43.653 229.902 63.532 229.902 63.532 252.974 74.213 252.974 74.213 229.902 74.213 219.221 74.213 196.677 63.532 196.677"/><rect class="cls-1" x="81.8942" y="218.4299" width="35.6044" height="10.6813"/><rect class="cls-1" x="81.8942" y="196.6771" width="35.6044" height="10.6813"/><rect class="cls-1" x="81.8942" y="242.2925" width="35.6044" height="10.6813"/><rect class="cls-1" x="450.99309" y="218.4299" width="35.6044" height="10.6813"/><rect class="cls-1" x="450.99309" y="196.6771" width="35.6044" height="10.6813"/><rect class="cls-1" x="450.99309" y="242.2925" width="35.6044" height="10.6813"/><polygon class="cls-1" points="164.147 196.677 136.521 252.974 146.081 252.974 164.147 215.798 182.213 252.974 191.773 252.974 164.147 196.677"/><polygon class="cls-1" points="355.619 196.677 327.993 252.974 337.554 252.974 355.619 215.798 373.685 252.974 383.246 252.974 355.619 196.677"/><path class="cls-1" d="M529.667,418.1373h3.01639a13.84539,13.84539,0,0,0,13.7141-11.1826,21.13988,21.13988,0,0,0,.3168-3.9767c-.0768-7.6037-3.4192-12.2102-6.1971-14.7314a9.90712,9.90712,0,0,0-6.6673-2.5433h-23.3993v56.2342h9.89V420.7143l16.7473,21.2967h11.7955Zm-10.90881-7.3791v-15.956h10.6594a8,8,0,0,1,8,8v.956a7,7,0,0,1-7,7Z" transform="translate(-19.2706 -189.0262)"/><path class="cls-1" d="M237.34779,385.7033h-23.7324V442h28.1273s18.8352,1.1868,19.3375-28.1484S237.34779,385.7033,237.34779,385.7033Zm1.5306,48.6548H222.664V396.1223h13.68089s13.9704-.8061,13.6808,19.1179S238.87839,434.3581,238.87839,434.3581Z" transform="translate(-19.2706 -189.0262)"/><polygon class="cls-1" points="317.345 196.677 295.718 236.369 274.092 196.677 264.07 252.985 273.301 252.985 277.257 221.732 295.718 252.985 314.18 221.732 318.136 252.985 327.367 252.985 317.345 196.677"/><path class="cls-1" d="M435.29879,433.8955a14.22046,14.22046,0,0,1-5.5996,5.6748,17.81492,17.81492,0,0,1-9.0303,2.1377,21.40018,21.40018,0,0,1-9.3798-1.9824,16.21731,16.21731,0,0,1-6.6153-5.7129,17.62923,17.62923,0,0,1-2.8349-8.7061h10.5a9.3168,9.3168,0,0,0,2.415,5.5577,7.155,7.155,0,0,0,5.49511,2.2158,6.02723,6.02723,0,0,0,4.72459-1.8272,6.76282,6.76282,0,0,0,1.6455-4.7031,6.59881,6.59881,0,0,0-1.33-4.2363,9.83479,9.83479,0,0,0-3.3604-2.6817,59.8726,59.8726,0,0,0-5.5996-2.332,52.17508,52.17508,0,0,1-7.5605-3.3818,14.50809,14.50809,0,0,1-5.0049-4.8584,15.06245,15.06245,0,0,1-2.0645-8.3174q0-7.07235,4.585-11.1543,4.5834-4.081,12.1445-4.0811,7.8384,0,12.4951,4.1973a16.439,16.439,0,0,1,5.28521,11.1934H425.56839a8.57117,8.57117,0,0,0-2.2393-4.8584,6.55567,6.55567,0,0,0-4.9707-1.9043,6.14605,6.14605,0,0,0-4.4092,1.5937,6.07474,6.07474,0,0,0-1.6806,4.625,6.14,6.14,0,0,0,1.2949,4.0039,9.96376,9.96376,0,0,0,3.29,2.6035,50.55607,50.55607,0,0,0,5.4248,2.2549,68.101,68.101,0,0,1,7.7354,3.4981,14.16321,14.16321,0,0,1,5.0752,4.8965,15.58479,15.58479,0,0,1,2.0996,8.5507A16.15137,16.15137,0,0,1,435.29879,433.8955Z" transform="translate(-19.2706 -189.0262)"/><path class="cls-1" d="M583.51859,434.7314a14.22223,14.22223,0,0,1-5.5997,5.6749,17.81554,17.81554,0,0,1-9.0302,2.1376,21.40059,21.40059,0,0,1-9.3799-1.9824,16.21639,16.21639,0,0,1-6.6152-5.7129,17.628,17.628,0,0,1-2.835-8.706h10.5a9.31678,9.31678,0,0,0,2.415,5.5576,7.15469,7.15469,0,0,0,5.4952,2.2158,6.02782,6.02782,0,0,0,4.7246-1.8271,6.76307,6.76307,0,0,0,1.6455-4.7032,6.59905,6.59905,0,0,0-1.3301-4.2363,9.83231,9.83231,0,0,0-3.3604-2.6816,59.86989,59.86989,0,0,0-5.5996-2.3321,52.17955,52.17955,0,0,1-7.5605-3.3818,14.508,14.508,0,0,1-5.0049-4.8584,15.06222,15.06222,0,0,1-2.0645-8.3174q0-7.0722,4.585-11.1543,4.58355-4.08105,12.1445-4.081,7.83842,0,12.4952,4.1972a16.43946,16.43946,0,0,1,5.2851,11.1934h-10.6406a8.57124,8.57124,0,0,0-2.2393-4.8584,6.55567,6.55567,0,0,0-4.9707-1.9043,6.14568,6.14568,0,0,0-4.4092,1.5938,6.07459,6.07459,0,0,0-1.6806,4.625,6.14017,6.14017,0,0,0,1.2949,4.0039,9.96606,9.96606,0,0,0,3.29,2.6035,50.5555,50.5555,0,0,0,5.42481,2.2549,68.07664,68.07664,0,0,1,7.73539,3.498,14.16321,14.16321,0,0,1,5.0752,4.8965,15.58483,15.58483,0,0,1,2.0996,8.5508A16.15233,16.15233,0,0,1,583.51859,434.7314Z" transform="translate(-19.2706 -189.0262)"/></svg>